<svg width="25" height="25" viewBox="0 0 25 25" fill="none" xmlns="http://www.w3.org/2000/svg">
<path d="M18.75 6.24996H15.4479C15.3108 6.25075 15.1749 6.22448 15.048 6.17264C14.9211 6.1208 14.8057 6.04442 14.7083 5.94788L13.8437 5.08329C13.2583 4.49707 12.4639 4.16736 11.6354 4.16663H6.25C5.4212 4.16663 4.62634 4.49587 4.04029 5.08192C3.45424 5.66797 3.125 6.46282 3.125 7.29163V17.7083C3.125 18.5371 3.45424 19.3319 4.04029 19.918C4.62634 20.5041 5.4212 20.8333 6.25 20.8333H18.75C19.5788 20.8333 20.3737 20.5041 20.9597 19.918C21.5458 19.3319 21.875 18.5371 21.875 17.7083V9.37496C21.875 8.54616 21.5458 7.7513 20.9597 7.16525C20.3737 6.5792 19.5788 6.24996 18.75 6.24996ZM19.7917 17.7083C19.7917 17.9846 19.6819 18.2495 19.4866 18.4449C19.2912 18.6402 19.0263 18.75 18.75 18.75H6.25C5.97373 18.75 5.70878 18.6402 5.51343 18.4449C5.31808 18.2495 5.20833 17.9846 5.20833 17.7083V7.29163C5.20833 7.01536 5.31808 6.75041 5.51343 6.55506C5.70878 6.35971 5.97373 6.24996 6.25 6.24996H11.6354C11.7725 6.24917 11.9084 6.27544 12.0353 6.32728C12.1622 6.37912 12.2777 6.4555 12.375 6.55204L13.2396 7.41663C13.8251 8.00284 14.6194 8.33256 15.4479 8.33329H18.75C19.0263 8.33329 19.2912 8.44304 19.4866 8.63839C19.6819 8.83374 19.7917 9.09869 19.7917 9.37496V17.7083Z" fill="#222221"/>
</svg>
