<svg width="24" height="25" viewBox="0 0 24 25" fill="none" xmlns="http://www.w3.org/2000/svg">
<path d="M21.71 20.79L17.31 16.4C18.4084 15.0032 19.0038 13.2769 19 11.5C19 9.91775 18.5308 8.37103 17.6518 7.05544C16.7727 5.73985 15.5233 4.71447 14.0615 4.10897C12.5997 3.50347 10.9911 3.34504 9.43928 3.65372C7.88743 3.9624 6.46197 4.72433 5.34315 5.84315C4.22433 6.96197 3.4624 8.38743 3.15372 9.93928C2.84504 11.4911 3.00347 13.0997 3.60897 14.5615C4.21447 16.0233 5.23985 17.2727 6.55544 18.1518C7.87103 19.0308 9.41775 19.5 11 19.5C12.7769 19.5038 14.5032 18.9084 15.9 17.81L20.29 22.21C20.4783 22.3983 20.7337 22.5041 21 22.5041C21.2663 22.5041 21.5217 22.3983 21.71 22.21C21.8983 22.0217 22.0041 21.7663 22.0041 21.5C22.0041 21.2337 21.8983 20.9783 21.71 20.79V20.79ZM6.76 15.79C5.76685 14.8188 5.14144 13.5331 4.99047 12.1523C4.83949 10.7714 5.17231 9.38099 5.93214 8.21815C6.69197 7.05531 7.83174 6.19214 9.15698 5.77589C10.4822 5.35964 11.9108 5.41612 13.1991 5.93567C14.4874 6.45523 15.5554 7.40567 16.2211 8.62486C16.8868 9.84405 17.1088 11.2564 16.8493 12.6211C16.5898 13.9857 15.8649 15.218 14.7981 16.1077C13.7314 16.9975 12.389 17.4896 11 17.5C9.40924 17.4986 7.88414 16.8655 6.76 15.74V15.79Z" fill="#2B2B2B"/>
</svg>
