<svg width="22" height="23" viewBox="0 0 22 23" fill="none" xmlns="http://www.w3.org/2000/svg">
<path d="M21.0833 11.5C21.052 10.7234 20.7239 9.9884 20.1666 9.44663C19.6413 8.90544 19.0195 8.4671 18.3333 8.15413C18.3333 8.15413 18.2874 8.15413 18.2508 8.09913L5.73826 2.82829C5.37387 2.66881 4.98101 2.58463 4.58326 2.58079C4.18458 2.57472 3.78867 2.648 3.41858 2.79637C3.04849 2.94475 2.7116 3.16525 2.42754 3.44506C2.14347 3.72486 1.91789 4.05837 1.76393 4.42617C1.60998 4.79398 1.53072 5.18873 1.53076 5.58746C1.54651 6.12149 1.67457 6.64621 1.9066 7.12746L3.60243 11.5L1.9066 15.8816C1.67685 16.3637 1.54891 16.8879 1.53076 17.4216C1.53073 17.8208 1.60994 18.216 1.76378 18.5843C1.91763 18.9526 2.14306 19.2867 2.427 19.5672C2.71094 19.8477 3.04775 20.0691 3.41789 20.2185C3.78803 20.3679 4.18414 20.4423 4.58326 20.4375C4.98719 20.4361 5.38654 20.3519 5.7566 20.19V20.19L18.2324 14.9191C18.2756 14.897 18.3157 14.8693 18.3516 14.8366C19.0453 14.4962 19.6675 14.0264 20.1849 13.4525C20.438 13.1803 20.6481 12.8712 20.8083 12.5358C20.9742 12.2146 21.0681 11.8611 21.0833 11.5V11.5ZM4.58326 4.41413C4.78488 4.41488 4.98322 4.46525 5.16076 4.56079C5.2014 4.58151 5.24453 4.59692 5.2891 4.60663L17.0499 9.59329C17.6549 9.82165 18.2138 10.157 18.6999 10.5833H5.21576L3.45576 6.05496C3.40324 5.90776 3.37537 5.7529 3.37326 5.59663C3.37195 5.43864 3.40256 5.28201 3.46325 5.13614C3.52395 4.99027 3.61348 4.85816 3.72647 4.74773C3.83947 4.63731 3.9736 4.55084 4.12083 4.49351C4.26806 4.43619 4.42535 4.40918 4.58326 4.41413V4.41413ZM3.3641 17.4216C3.36933 17.2776 3.39717 17.1353 3.4466 17V17L5.21576 12.4166H18.6266C18.1672 12.8396 17.6324 13.1723 17.0499 13.3975V13.3975L5.24326 18.4025H5.11493C4.93979 18.505 4.74039 18.5588 4.53743 18.5583C4.23318 18.5562 3.94146 18.4368 3.72293 18.2251C3.5044 18.0134 3.37588 17.7257 3.3641 17.4216V17.4216Z" fill="#222221"/>
</svg>
