<svg width="24" height="25" viewBox="0 0 24 25" fill="none" xmlns="http://www.w3.org/2000/svg">
<path d="M12 9.49996C11.4067 9.49996 10.8267 9.6759 10.3333 10.0055C9.83998 10.3352 9.45547 10.8037 9.2284 11.3519C9.00134 11.9001 8.94193 12.5033 9.05769 13.0852C9.17344 13.6672 9.45916 14.2017 9.87872 14.6213C10.2983 15.0408 10.8328 15.3266 11.4148 15.4423C11.9967 15.5581 12.5999 15.4987 13.1481 15.2716C13.6963 15.0445 14.1648 14.66 14.4945 14.1667C14.8241 13.6733 15 13.0933 15 12.5C15 11.7043 14.684 10.9412 14.1214 10.3786C13.5588 9.81603 12.7957 9.49996 12 9.49996ZM12 13.5C11.8023 13.5 11.6089 13.4413 11.4445 13.3314C11.28 13.2215 11.1518 13.0654 11.0762 12.8826C11.0005 12.6999 10.9807 12.4988 11.0193 12.3049C11.0578 12.1109 11.1531 11.9327 11.2929 11.7928C11.4328 11.653 11.611 11.5578 11.805 11.5192C11.9989 11.4806 12.2 11.5004 12.3827 11.5761C12.5655 11.6518 12.7216 11.7799 12.8315 11.9444C12.9414 12.1088 13 12.3022 13 12.5C13 12.7652 12.8947 13.0195 12.7071 13.2071C12.5196 13.3946 12.2653 13.5 12 13.5ZM20.81 13.31C20.647 13.1251 20.5579 12.8865 20.56 12.64V12.36C20.5579 12.1134 20.647 11.8748 20.81 11.69L21.45 10.97C21.9406 10.4194 22.2111 9.70737 22.21 8.96996C22.2052 8.44424 22.0676 7.92827 21.81 7.46996L21.25 6.46996C20.9866 6.01362 20.6076 5.63472 20.1511 5.3714C19.6947 5.10808 19.177 4.96962 18.65 4.96996C18.4486 4.97009 18.2476 4.99019 18.05 5.02996L17.11 5.21996H16.9C16.7285 5.21729 16.5603 5.17266 16.41 5.08996L16.16 4.93996C15.9666 4.84555 15.8088 4.69123 15.71 4.49996L15.4 3.58996C15.1926 3.00319 14.8078 2.49546 14.2989 2.13712C13.7901 1.77877 13.1824 1.58756 12.56 1.58996H11.44C10.8225 1.58461 10.2183 1.76998 9.71004 2.12077C9.20175 2.47155 8.81411 2.97066 8.60004 3.54996L8.29004 4.49996C8.21244 4.7322 8.05232 4.9279 7.84004 5.04996L7.60004 5.19996C7.44565 5.28132 7.27451 5.32581 7.10004 5.32996H6.90004L6.00004 5.07996C5.80252 5.04019 5.60153 5.02009 5.40004 5.01996C4.86663 5.00872 4.33987 5.13994 3.87406 5.40009C3.40825 5.66024 3.02025 6.03991 2.75004 6.49996L2.19004 7.49996C1.87618 8.04586 1.74205 8.67669 1.80667 9.30307C1.87128 9.92945 2.13135 10.5196 2.55004 10.99L3.19004 11.71C3.35311 11.8948 3.44214 12.1334 3.44004 12.38V12.66C3.44214 12.9065 3.35311 13.1451 3.19004 13.33L2.55004 14.05C2.05951 14.6006 1.78896 15.3125 1.79004 16.05C1.79487 16.5757 1.93246 17.0916 2.19004 17.55L2.75004 18.55C3.01351 19.0063 3.39253 19.3852 3.84895 19.6485C4.30538 19.9118 4.82311 20.0503 5.35004 20.05C5.55153 20.0498 5.75252 20.0297 5.95004 19.99L6.89004 19.8H7.09004C7.26154 19.8026 7.42978 19.8473 7.58004 19.93L7.83004 20.08C8.04232 20.202 8.20244 20.3977 8.28004 20.63L8.60004 21.5C8.80749 22.0867 9.1923 22.5945 9.70114 22.9528C10.21 23.3111 10.8177 23.5024 11.44 23.5H12.56C13.1824 23.5024 13.7901 23.3111 14.2989 22.9528C14.8078 22.5945 15.1926 22.0867 15.4 21.5L15.71 20.59C15.7876 20.3577 15.9478 20.162 16.16 20.04L16.4 19.89C16.5544 19.8086 16.7256 19.7641 16.9 19.76H17.1L18.05 19.95C18.2476 19.9897 18.4486 20.0098 18.65 20.01C19.177 20.0103 19.6947 19.8718 20.1511 19.6085C20.6076 19.3452 20.9866 18.9663 21.25 18.51L21.81 17.51C22.0676 17.0516 22.2052 16.5357 22.21 16.01C22.2111 15.2725 21.9406 14.5606 21.45 14.01L20.81 13.31ZM19.32 14.63L19.96 15.35C20.1231 15.5348 20.2121 15.7734 20.21 16.02C20.2082 16.196 20.1599 16.3685 20.07 16.52L19.51 17.52C19.4228 17.6711 19.2975 17.7968 19.1466 17.8845C18.9958 17.9722 18.8246 18.0189 18.65 18.02H18.45L17.51 17.83C16.7888 17.6804 16.0378 17.8014 15.4 18.17L15.16 18.31C14.5232 18.6761 14.0428 19.2632 13.81 19.96L13.51 20.88C13.443 21.0786 13.3151 21.2511 13.1447 21.3731C12.9742 21.4951 12.7697 21.5605 12.56 21.56H11.44C11.2304 21.5605 11.0259 21.4951 10.8554 21.3731C10.6849 21.2511 10.5571 21.0786 10.49 20.88L10.19 19.96C9.95723 19.2632 9.47688 18.6761 8.84004 18.31L8.59004 18.17C8.13674 17.909 7.62309 17.7711 7.10004 17.77C6.89524 17.7701 6.69094 17.7902 6.49004 17.83V17.83L5.55004 18.02H5.35004C5.17383 18.0207 5.00057 17.9748 4.84779 17.887C4.69501 17.7992 4.56815 17.6726 4.48004 17.52L3.93004 16.52C3.84017 16.3685 3.79187 16.196 3.79004 16.02C3.77676 15.7786 3.85136 15.5406 4.00004 15.35L4.64004 14.63C5.13057 14.0794 5.40112 13.3674 5.40004 12.63V12.35C5.40112 11.6125 5.13057 10.9006 4.64004 10.35L4.00004 9.64996C3.83697 9.46507 3.74794 9.22647 3.75004 8.97996C3.76732 8.80703 3.82935 8.6416 3.93004 8.49996L4.49004 7.49996C4.5773 7.34882 4.70259 7.22315 4.85346 7.13543C5.00433 7.04772 5.17553 7.00101 5.35004 6.99996H5.55004L6.49004 7.18996C6.69087 7.23019 6.89522 7.25029 7.10004 7.24996C7.62309 7.24879 8.13674 7.1109 8.59004 6.84996L8.84004 6.70996C9.46941 6.35357 9.94883 5.78181 10.19 5.09996L10.49 4.17996C10.5571 3.98134 10.6849 3.80882 10.8554 3.6868C11.0259 3.56478 11.2304 3.49942 11.44 3.49996H12.56C12.7697 3.49942 12.9742 3.56478 13.1447 3.6868C13.3151 3.80882 13.443 3.98134 13.51 4.17996L13.81 5.09996C14.0428 5.79669 14.5232 6.38379 15.16 6.74996L15.41 6.88996C15.8633 7.1509 16.377 7.28879 16.9 7.28996C17.1049 7.29029 17.3092 7.27019 17.51 7.22996L18.45 7.03996H18.65C18.8263 7.03926 18.9995 7.08513 19.1523 7.17294C19.3051 7.26074 19.4319 7.38735 19.52 7.53996L20.07 8.53996C20.1599 8.69139 20.2082 8.86387 20.21 9.03996C20.2121 9.28647 20.1231 9.52507 19.96 9.70996L19.32 10.43C18.8295 10.9806 18.559 11.6925 18.56 12.43V12.71C18.559 13.4474 18.8295 14.1594 19.32 14.71" fill="#222221"/>
</svg>
