<svg width="24" height="25" viewBox="0 0 24 25" fill="none" xmlns="http://www.w3.org/2000/svg">
<path d="M12 13.5C12.9889 13.5 13.9556 13.2068 14.7779 12.6573C15.6001 12.1079 16.241 11.327 16.6194 10.4134C16.9978 9.49979 17.0969 8.49446 16.9039 7.52455C16.711 6.55465 16.2348 5.66373 15.5355 4.96447C14.8363 4.26521 13.9454 3.789 12.9755 3.59608C12.0055 3.40315 11.0002 3.50217 10.0866 3.8806C9.17295 4.25904 8.39206 4.89991 7.84265 5.72215C7.29324 6.5444 7 7.5111 7 8.5C7 9.82608 7.52678 11.0979 8.46447 12.0355C9.40215 12.9732 10.6739 13.5 12 13.5V13.5ZM12 5.5C12.5933 5.5 13.1734 5.67595 13.6667 6.00559C14.1601 6.33524 14.5446 6.80377 14.7716 7.35195C14.9987 7.90013 15.0581 8.50333 14.9424 9.08527C14.8266 9.66722 14.5409 10.2018 14.1213 10.6213C13.7018 11.0409 13.1672 11.3266 12.5853 11.4424C12.0033 11.5581 11.4001 11.4987 10.8519 11.2716C10.3038 11.0446 9.83524 10.6601 9.50559 10.1667C9.17595 9.67337 9 9.09335 9 8.5C9 7.70435 9.31607 6.94129 9.87868 6.37868C10.4413 5.81607 11.2044 5.5 12 5.5V5.5ZM19 18.5V20.5C19 20.7652 18.8946 21.0196 18.7071 21.2071C18.5196 21.3946 18.2652 21.5 18 21.5C17.7348 21.5 17.4804 21.3946 17.2929 21.2071C17.1054 21.0196 17 20.7652 17 20.5V18.5C17 18.2348 16.8946 17.9804 16.7071 17.7929C16.5196 17.6054 16.2652 17.5 16 17.5H8C7.73478 17.5 7.48043 17.6054 7.29289 17.7929C7.10536 17.9804 7 18.2348 7 18.5V20.5C7 20.7652 6.89464 21.0196 6.70711 21.2071C6.51957 21.3946 6.26522 21.5 6 21.5C5.73478 21.5 5.48043 21.3946 5.29289 21.2071C5.10536 21.0196 5 20.7652 5 20.5V18.5C5 17.7044 5.31607 16.9413 5.87868 16.3787C6.44129 15.8161 7.20435 15.5 8 15.5H16C16.7956 15.5 17.5587 15.8161 18.1213 16.3787C18.6839 16.9413 19 17.7044 19 18.5Z" fill="#222221"/>
</svg>
